<svg width="520" height="418" xmlns="http://www.w3.org/2000/svg" xmlns:xlink="http://www.w3.org/1999/xlink" overflow="hidden"><defs><clipPath id="clip0"><rect x="676" y="213" width="520" height="418"/></clipPath></defs><g clip-path="url(#clip0)" transform="translate(-676 -213)"><rect x="677.5" y="214.5" width="518" height="416" stroke="#FFFFFF" stroke-width="1.33333" stroke-miterlimit="8" fill="#FFFFFF"/><rect x="764" y="459" width="371" height="135" fill="#F1EFEF"/><path d="M0 0 189.995 0.000104987" stroke="#939598" stroke-width="3" stroke-linejoin="round" stroke-miterlimit="10" fill="none" fill-rule="evenodd" transform="matrix(-1 -8.74228e-08 -8.74228e-08 1 1044.5 499.5)"/><rect x="902" y="467" width="89" height="78" fill="#F1EFEF"/><rect x="764" y="306" width="236" height="153" fill="#F1EFEF"/><path d="M895.5 288.5 927.005 333.282" stroke="#EE9750" stroke-width="3" stroke-linejoin="round" stroke-miterlimit="10" stroke-dasharray="3 3" fill="none" fill-rule="evenodd"/><path d="M812.5 435.5 812.5 473.717" stroke="#6FC6E0" stroke-width="3" stroke-linejoin="round" stroke-miterlimit="10" stroke-dasharray="3 3" fill="none" fill-rule="evenodd"/><path d="M945.5 436.5 945.5 474.717" stroke="#EE9750" stroke-width="3" stroke-linejoin="round" stroke-miterlimit="10" stroke-dasharray="3 3" fill="none" fill-rule="evenodd"/><rect x="766" y="379" width="90" height="46" fill="#F1EFEF"/><text fill="#5A5A5A" font-family="Segoe UI,Segoe UI_MSFontService,sans-serif" font-weight="700" font-size="13" transform="translate(773.839 406)">ArcGIS Web <tspan x="11.4133" y="16">Adaptor</tspan></text><rect x="891" y="379" width="107" height="46" fill="#F1EFEF"/><text fill="#5A5A5A" font-family="Segoe UI,Segoe UI_MSFontService,sans-serif" font-weight="700" font-size="13" transform="translate(907.223 406)">ArcGIS Web <tspan x="11.42" y="16">Adaptor</tspan><tspan x="-124.225" y="151">Portal for </tspan><tspan x="-115.225" y="167">ArcGIS</tspan><tspan x="17.2125" y="154">ArcGIS </tspan><tspan x="18.4659" y="170">Server</tspan><tspan x="155.195" y="154">ArcGIS</tspan><tspan x="143.115" y="170">Data Store</tspan><tspan font-style="italic" font-weight="400" font-size="11" x="-125.289" y="59">7443</tspan><tspan font-style="italic" font-weight="400" font-size="11" x="45.9564" y="60">6443</tspan><tspan font-style="italic" font-weight="400" font-size="11" x="19.9935" y="-85">443</tspan></text><path d="M884.192 260.848 892.808 260.848 892.808 263.944 894.987 263.944 895.544 264.017 896.077 264.21 896.507 264.549 896.837 264.96 897.065 265.444 897.116 266 881.278 266 881.151 264.113 881.557 263.992 882.013 263.944 884.192 263.944 884.192 260.848ZM879.808 231 881.658 231 893.619 231 895.342 231 897.192 231 905.756 231 906.415 231.048 907.023 231.242 907.556 231.508 908.037 231.895 908.443 232.355 908.747 232.887 908.924 233.443 909 234.096 909 239.659 909 242.296 909 244.884 909 247.472 909 250.109 909 255.72 908.924 256.325 908.747 256.905 908.443 257.413 908.037 257.873 907.556 258.26 907.023 258.55 906.415 258.719 905.756 258.792 880.036 258.792 879.53 258.018 878.947 257.317 878.313 256.736 877.604 256.228 876.869 255.793 876.109 255.454 875.349 255.188 875.551 254.946 875.703 254.68 905.756 254.68 905.756 234.096 871.244 234.096 871.244 242.126 870.306 241.836 869.343 241.691 868.329 241.594 868.152 241.619 868 241.619 868 234.096 868.076 233.443 868.253 232.887 868.557 232.355 868.963 231.895 869.444 231.508 869.977 231.242 870.585 231.048 871.244 231 877.883 231 879.808 231Z" fill="#6FC6DF" fill-rule="evenodd"/><path d="M868.512 257.582 869.107 257.582 869.826 257.582 870.694 257.606 871.562 257.652 872.479 257.699 873.322 257.816 874.091 257.909 874.537 258.003 875.008 258.143 875.479 258.353 875.95 258.586 876.397 258.89 876.793 259.263 877.165 259.707 877.512 260.197 877.785 260.757 877.983 261.411 878.083 262.134 879 274.413 878.975 274.88 878.876 275.324 878.653 275.767 878.355 276.187 877.983 276.514 877.512 276.794 876.992 276.934 876.992 280.203 876.942 280.669 876.719 281.113 876.446 281.486 876.05 281.743 875.603 281.953 875.083 282 861.917 282 861.397 281.953 860.95 281.743 860.578 281.486 860.281 281.113 860.058 280.669 860.008 280.203 860.008 276.934 859.463 276.794 859.017 276.514 858.645 276.187 858.347 275.767 858.124 275.324 858.025 274.857 858 274.413 858.917 262.134 859.017 261.411 859.24 260.757 859.488 260.197 859.835 259.707 860.207 259.263 860.628 258.89 861.074 258.586 861.545 258.353 862.017 258.143 862.488 258.003 862.934 257.909 863.678 257.816 864.521 257.699 865.413 257.652 866.306 257.606 867.149 257.582 867.893 257.582 868.512 257.582ZM868.512 245 869.455 245.093 870.347 245.28 871.165 245.63 871.934 246.074 872.603 246.611 873.198 247.264 873.694 247.988 874.017 248.758 874.264 249.622 874.339 250.509 874.289 251.396 874.066 252.26 873.719 253.077 873.248 253.801 872.678 254.454 871.983 254.991 871.19 255.458 870.372 255.808 869.455 256.042 868.512 256.112 867.545 256.042 866.653 255.808 865.81 255.458 865.017 254.991 864.347 254.454 863.752 253.801 863.281 253.077 862.959 252.26 862.711 251.396 862.661 250.509 862.736 249.622 862.983 248.758 863.306 247.988 863.826 247.264 864.397 246.611 865.066 246.074 865.835 245.63 866.678 245.28 867.57 245.093 868.512 245Z" fill="#959595" fill-rule="evenodd"/><path d="M819.716 515.06 826 518.577 812.938 526 800 518.577 806.161 515.06 812.938 518.837 819.716 515.06ZM812.938 498 826 505.293 812.938 512.716 800 505.293 812.938 498Z" fill="#6FC6DF" fill-rule="evenodd"/><path d="M812.611 481C790.133 492.234 790.133 492.234 790.133 492.234 785.814 494.367 783.062 498.749 783 503.565 783 524.332 783 524.332 783 524.332 783 530.777 788.522 537 795.027 537 824.805 537 824.805 537 824.805 537 834.345 537 842 528.334 842 518.879 842 494.217 842 494.217 842 494.217L812.611 481ZM837.274 518.879C837.274 526.023 831.451 532.282 824.805 532.282 795.027 532.282 795.027 532.282 795.027 532.282 791.336 532.282 787.717 528.342 787.717 524.332 787.717 503.591 787.717 503.591 787.717 503.591 787.779 500.564 789.531 497.819 792.257 496.483 812.717 486.249 812.717 486.249 812.717 486.249 832.929 495.341 832.929 495.341 832.929 495.341 835.575 496.536 837.274 499.165 837.274 502.06L837.274 518.879Z" fill="#959595" fill-rule="evenodd"/><path d="M0 0 29.808 43.9837" stroke="#6FC6E0" stroke-width="3" stroke-linejoin="round" stroke-miterlimit="10" stroke-dasharray="3 3" fill="none" fill-rule="evenodd" transform="matrix(-1 -8.74228e-08 -8.74228e-08 1 855.308 290.5)"/><text fill="#5A5A5A" font-family="Segoe UI,Segoe UI_MSFontService,sans-serif" font-style="italic" font-weight="400" font-size="11" transform="translate(806.153 321)">443</text><path d="M831 379.897C831 377.631 828.896 375.795 826.309 375.795 823.711 375.795 821.607 377.631 821.607 379.897 821.607 382.164 823.711 384 826.309 384 828.896 384 831 382.164 831 379.897ZM825.634 363.496C825.634 361.229 823.53 359.402 820.933 359.402 818.346 359.402 816.242 361.229 816.242 363.496 816.242 365.762 818.346 367.598 820.933 367.598 823.53 367.598 825.634 365.762 825.634 363.496ZM831 347.103C831 344.836 828.896 343 826.309 343 823.711 343 821.607 344.836 821.607 347.103 821.607 349.36 823.711 351.196 826.309 351.196 828.896 351.196 831 349.36 831 347.103ZM784.691 367.598C782.104 367.598 780 365.762 780 363.496 780 361.229 782.104 359.402 784.691 359.402 787.289 359.402 789.393 361.229 789.393 363.496 789.393 365.762 787.289 367.598 784.691 367.598Z" fill="#6FC6E0" fill-rule="evenodd"/><path d="M830.258 377.516C836 377.516 836 377.516 836 377.516 836 381 836 381 836 381 830.258 381 830.258 381 830.258 381 830.872 379.902 830.872 378.613 830.258 377.516ZM770 361.254C770 364.738 770 364.738 770 364.738 778.227 364.738 778.227 364.738 778.227 364.738 777.821 363.605 777.821 362.386 778.227 361.254L770 361.254ZM819.131 377.516C814.241 377.516 814.241 377.516 814.241 377.516 807.291 364.738 807.291 364.738 807.291 364.738 813.865 364.738 813.865 364.738 813.865 364.738 813.459 363.605 813.459 362.386 813.865 361.254 800.54 361.254 800.54 361.254 800.54 361.254 804.173 348.484 804.173 348.484 804.173 348.484 819.131 348.484 819.131 348.484 819.131 348.484 818.735 347.343 818.735 346.124 819.151 345 801.837 345 801.837 345 801.837 345 796.56 361.254 796.56 361.254 796.56 361.254 789.334 361.254 789.334 361.254 789.334 361.254 789.957 362.351 789.957 363.64 789.334 364.738 803.638 364.738 803.638 364.738 803.638 364.738 812.479 381 812.479 381 812.479 381 819.151 381 819.151 381 819.151 381 818.735 379.868 818.735 378.648 819.131 377.516ZM830.258 345C830.872 346.098 830.872 347.378 830.258 348.484 836 348.484 836 348.484 836 348.484 836 345 836 345 836 345L830.258 345ZM825.437 362.996C825.437 363.605 825.279 364.198 824.972 364.738 836 364.738 836 364.738 836 364.738 836 361.254 836 361.254 836 361.254 824.972 361.254 824.972 361.254 824.972 361.254 825.279 361.802 825.437 362.395 825.437 362.996Z" fill="#959595" fill-rule="evenodd"/><path d="M972 377.897C972 375.631 969.937 373.795 967.401 373.795 964.854 373.795 962.792 375.631 962.792 377.897 962.792 380.164 964.854 382 967.401 382 969.937 382 972 380.164 972 377.897ZM966.739 361.496C966.739 359.229 964.677 357.402 962.13 357.402 959.594 357.402 957.531 359.229 957.531 361.496 957.531 363.762 959.594 365.598 962.13 365.598 964.677 365.598 966.739 363.762 966.739 361.496ZM972 345.103C972 342.836 969.937 341 967.401 341 964.854 341 962.792 342.836 962.792 345.103 962.792 347.36 964.854 349.196 967.401 349.196 969.937 349.196 972 347.36 972 345.103ZM926.599 365.598C924.063 365.598 922 363.762 922 361.496 922 359.229 924.063 357.402 926.599 357.402 929.146 357.402 931.208 359.229 931.208 361.496 931.208 363.762 929.146 365.598 926.599 365.598Z" fill="#EE9750" fill-rule="evenodd"/><path d="M972.171 376.516C978 376.516 978 376.516 978 376.516 978 380 978 380 978 380 972.171 380 972.171 380 972.171 380 972.794 378.902 972.794 377.613 972.171 376.516ZM911 360.254C911 363.738 911 363.738 911 363.738 919.351 363.738 919.351 363.738 919.351 363.738 918.939 362.605 918.939 361.386 919.351 360.254L911 360.254ZM960.876 376.516C955.911 376.516 955.911 376.516 955.911 376.516 948.856 363.738 948.856 363.738 948.856 363.738 955.529 363.738 955.529 363.738 955.529 363.738 955.117 362.605 955.117 361.386 955.529 360.254 942.003 360.254 942.003 360.254 942.003 360.254 945.691 347.484 945.691 347.484 945.691 347.484 960.876 347.484 960.876 347.484 960.876 347.484 960.474 346.343 960.474 345.124 960.896 344 943.319 344 943.319 344 943.319 344 937.963 360.254 937.963 360.254 937.963 360.254 930.627 360.254 930.627 360.254 930.627 360.254 931.26 361.351 931.26 362.64 930.627 363.738 945.148 363.738 945.148 363.738 945.148 363.738 954.122 380 954.122 380 954.122 380 960.896 380 960.896 380 960.896 380 960.474 378.868 960.474 377.648 960.876 376.516ZM972.171 344C972.794 345.098 972.794 346.378 972.171 347.484 978 347.484 978 347.484 978 347.484 978 344 978 344 978 344L972.171 344ZM967.277 361.996C967.277 362.605 967.116 363.198 966.805 363.738 978 363.738 978 363.738 978 363.738 978 360.254 978 360.254 978 360.254 966.805 360.254 966.805 360.254 966.805 360.254 967.116 360.802 967.277 361.395 967.277 361.996Z" fill="#959595" fill-rule="evenodd"/><path d="M951.728 495.427 951.294 495.496 950.907 495.701 950.642 495.953 950.424 496.319 950.352 496.731 950.352 498.011 950.424 498.423 950.642 498.766 950.907 499.041 951.294 499.224 951.728 499.292 959.864 499.292 960.299 499.224 960.661 499.041 960.95 498.766 961.144 498.423 961.216 498.011 961.216 496.731 961.144 496.319 960.95 495.953 960.661 495.701 960.299 495.496 959.864 495.427 951.728 495.427ZM938.208 495.427 937.75 495.496 937.363 495.701 937.074 495.976 936.856 496.342 936.784 496.776 936.784 497.943 936.856 498.377 937.074 498.743 937.363 499.018 937.75 499.224 938.208 499.292 939.44 499.292 939.898 499.224 940.285 499.018 940.574 498.743 940.792 498.377 940.864 497.943 940.864 496.776 940.792 496.342 940.574 495.976 940.285 495.701 939.898 495.496 939.44 495.427 938.208 495.427ZM930.048 495.427 929.614 495.496 929.227 495.701 928.914 495.976 928.72 496.342 928.648 496.776 928.648 497.943 928.72 498.377 928.914 498.743 929.227 499.018 929.614 499.224 930.048 499.292 931.304 499.292 931.738 499.224 932.149 499.018 932.438 498.743 932.656 498.377 932.704 497.943 932.704 496.776 932.656 496.342 932.438 495.976 932.149 495.701 931.738 495.496 931.304 495.427 930.048 495.427ZM921.188 494.146 920.488 494.215 919.86 494.421 919.281 494.695 918.774 495.084 918.363 495.564 918.05 496.113 917.856 496.708 917.784 497.348 917.856 498.011 918.05 498.606 918.363 499.178 918.774 499.635 919.281 500.024 919.86 500.321 920.488 500.504 921.188 500.573 921.864 500.504 922.492 500.321 923.071 500.024 923.578 499.635 923.989 499.178 924.302 498.606 924.496 498.011 924.568 497.348 924.496 496.708 924.302 496.113 923.989 495.564 923.578 495.084 923.071 494.695 922.492 494.421 921.864 494.215 921.188 494.146ZM911 489 968 489 968 501.854 963.944 501.854 963.316 501.922 962.737 502.128 962.23 502.426 961.82 502.814 961.506 503.295 961.288 503.844 961.216 504.438 961.216 504.553 958.078 502.357 957.57 502.105 957.039 501.922 956.484 501.854 955.905 501.922 955.349 502.105 954.867 502.357 948.227 507 911 507 911 489Z" fill="#959595" fill-rule="evenodd"/><path d="M956.024 505 963.352 510.49 963.352 505 967.336 505 967.336 513.487 974 518.474 970.016 518.474 970.016 536 960.672 536 960.672 525.211 960.601 524.612 960.387 524.012 960.103 523.533 959.676 523.101 959.202 522.814 958.609 522.598 958.016 522.526 954.008 522.526 953.415 522.598 952.822 522.814 952.324 523.101 951.921 523.533 951.613 524.012 951.399 524.612 951.352 525.211 951.352 536 942.008 536 942.008 518.474 938 518.474 956.024 505Z" fill="#6FC6DF" fill-rule="evenodd"/><path d="M1087.59 499.966C1083.91 502.313 1077.27 503.241 1071.29 503.241 1065.32 503.241 1058.68 502.313 1055 499.966 1055 493 1055 493 1055 493 1058.67 495.357 1065.32 496.285 1071.29 496.285 1077.27 496.285 1083.91 495.357 1087.59 493L1087.59 499.966ZM1096.09 508.8C1083.34 508.8 1083.34 508.8 1083.34 508.8 1083.34 521.314 1083.34 521.314 1083.34 521.314 1096.09 521.314 1096.09 521.314 1096.09 521.314L1096.09 508.8ZM1079.79 524.099C1089 538 1089 538 1089 538 1070.59 538 1070.59 538 1070.59 538L1079.79 524.099ZM1106 531.044C1106 534.882 1102.82 538 1098.91 538 1095 538 1091.84 534.882 1091.84 531.044 1091.84 527.206 1095 524.099 1098.91 524.099 1102.82 524.099 1106 527.206 1106 531.044Z" fill="#6FC6DF" fill-rule="evenodd"/><path d="M1070.99 518.99C1062.16 518.99 1055 515.684 1055 512.995 1055 502.041 1055 502.041 1055 502.041 1058.61 504.395 1065.13 505.316 1070.99 505.316 1076.87 505.316 1083.39 504.395 1087 502.041 1087 505.316 1087 505.316 1087 505.316 1082.83 505.316 1082.83 505.316 1082.83 505.316 1081.28 505.316 1080.04 506.571 1080.04 508.109 1080.04 517.776 1080.04 517.776 1080.04 517.776 1077.1 518.592 1074.05 519 1070.99 518.99ZM1070.99 492.761C1079.83 492.761 1087 490.575 1087 487.886 1087 485.187 1079.83 483 1070.99 483 1062.16 483 1055 485.187 1055 487.886 1055 490.575 1062.16 492.761 1070.99 492.761Z" fill="#959595" fill-rule="evenodd"/></g></svg>